# xmcd
# Copyright (C) 1995-1998 Ti Kan
#
# Track frame offsets:
#       150
#       20334
#       38860
#       54529
#       89768
#       134236
#       170988
#       187086
#       235499
#       249886
#
# Disc length: 3583 seconds
#
# Revision: 0
# Processed by: cddbd v1.5.2PL0 Copyright (c) Steve Scherf et al.
# Submitted via: CD-Import v1.0
#
DISCID=950dfd0a
DTITLE=Ephraim Kishon - Kishons Beste Autofahrergeschichten
DYEAR=03
DGENRE=
TTITLE0=Süss Ist Die Rache
TTITLE1=Nonstop Autostop
TTITLE2=Privatparkplatz
TTITLE3=Der Letzte Schrei Der Medien
TTITLE4=In Den Händen Der Chauvinisten
TTITLE5=Ein Parasit Fährt Mit
TTITLE6=Die Gefahren Der Guten Kinderstube
TTITLE7=Jede Münzen Hat Zwei Seiten
TTITLE8=Das Werkstatt-Kabarett
TTITLE9=Busfahren Ist Gefährlich
EXTD=
EXTT0=
EXTT1=
EXTT2=
EXTT3=
EXTT4=
EXTT5=
EXTT6=
EXTT7=
EXTT8=
EXTT9=
PLAYORDER=
